<svg width="83" height="83" viewBox="0 0 83 83" fill="none" xmlns="http://www.w3.org/2000/svg">
<path d="M80.3897 22.2611C79.7289 21.6335 78.8368 21.3363 77.9116 21.4354L61.8535 23.4501L56.8973 3.93038C56.5999 2.74137 55.6087 1.8496 54.3861 1.65143C53.1636 1.48629 51.9741 2.04777 51.3463 3.1377L45.3328 13.4425L29.8694 15.5894L21.4108 3.20376C20.783 2.312 19.7918 1.81657 18.6684 1.88263C17.578 1.94869 16.6528 2.57622 16.1572 3.56707C13.3157 9.28096 7.66559 25.696 1.81726 71.6053L4.92315 72.0016C10.9036 25.2997 16.6528 9.71033 18.9327 5.08637L27.3252 17.4059C27.986 18.3637 29.1095 18.8592 30.2659 18.694L45.7954 16.5141C46.7205 16.382 47.5135 15.8536 48.0091 15.0279L53.9566 4.85517L58.8798 24.2428C59.2432 25.729 60.697 26.6868 62.2169 26.5217L68.2305 25.7621C67.9331 28.3383 68.0983 32.2026 71.2703 33.854C72.8232 34.6467 74.4092 34.9109 75.797 34.9109C76.3917 34.9109 76.9865 34.8779 77.4821 34.7788L76.0613 54.1333L57.6572 59.3518C56.2695 59.7481 55.3774 61.0032 55.4435 62.4565L56.5008 81.2495L59.6067 81.0844L58.5493 62.3574L76.9204 57.1389C78.1429 56.7756 79.035 55.7187 79.1341 54.4306L81.3149 24.6721C81.381 23.7473 81.0505 22.8886 80.3897 22.2611ZM72.9224 30.6502C71.5677 29.9566 71.6337 27.2153 71.9642 25.3327L78.242 24.54L77.7464 31.0466C76.623 31.3108 74.7066 31.542 72.9224 30.6172V30.6502Z" fill="#4F46E5" stroke="#4F46E5" stroke-miterlimit="10"/>
<path d="M35.123 35.2742C36.1631 35.2742 37.0063 33.9729 37.0063 32.3677C37.0063 30.7625 36.1631 29.4612 35.123 29.4612C34.0828 29.4612 33.2396 30.7625 33.2396 32.3677C33.2396 33.9729 34.0828 35.2742 35.123 35.2742Z" fill="#4F46E5"/>
<path d="M48.736 33.5897C49.7762 33.5897 50.6194 32.2884 50.6194 30.6832C50.6194 29.078 49.7762 27.7767 48.736 27.7767C47.6959 27.7767 46.8527 29.078 46.8527 30.6832C46.8527 32.2884 47.6959 33.5897 48.736 33.5897Z" fill="#4F46E5"/>
</svg>
