<svg width="548" height="570" viewBox="0 0 548 570" fill="none" xmlns="http://www.w3.org/2000/svg">
<g clip-path="url(#clip0_31_3)">
<path d="M542.526 294.933C518.536 287.23 493.802 282.77 468.797 281.351C468.121 266.554 467.31 252.365 466.432 238.784C477.582 234.257 488.26 228.784 498.397 222.297C506.912 216.824 499.005 203.176 490.423 208.649C482.381 213.784 473.933 218.311 465.283 222.095C455.89 89.9326 439.603 18.4461 439.265 17.2974C438.387 13.4461 435.413 10.4055 431.561 9.45959C427.709 8.51364 423.722 9.79742 421.086 12.7704L352.291 91.6217C338.91 90.7434 303.363 88.4461 284.509 88.4461C265.654 88.4461 228.35 90.6082 212.942 91.5542C186.384 43.5136 150.972 -8.71609 127.252 1.21634C119.683 4.39202 110.424 8.24338 69.9445 217.568C57.5099 217.365 45.0754 217.568 32.6408 218.243C22.5715 218.851 22.5039 234.595 32.6408 234.054C44.0617 233.378 55.4826 233.176 66.971 233.311C64.2679 247.433 61.4295 262.433 58.456 278.379C57.983 280.946 57.5099 283.514 57.0369 286.081C40.6827 286.96 24.3285 288.243 7.97435 290.135C3.64928 290.608 0 293.379 0 298.041C0 301.96 3.64928 306.419 7.90677 305.946C23.2473 304.189 38.5877 302.973 53.9958 302.095C31.4243 424.324 11.8939 540.135 11.6912 541.352L32.438 544.865C44.4671 473.311 60.0104 384.933 75.6212 301.149C91.232 300.676 106.91 300.473 122.521 300.879C132.658 301.149 132.658 285.338 122.521 285.068C107.856 284.73 93.1918 284.865 78.5271 285.27C81.7709 267.838 85.0147 250.743 88.2585 234.054C102.585 234.865 116.845 236.216 131.036 238.311C135.226 238.919 139.551 237.297 140.768 232.77C141.781 229.054 139.484 223.716 135.226 223.041C120.629 220.878 105.897 219.392 91.232 218.514C110.289 120.473 127.59 40.9461 136.375 21.892C147.999 28.3785 175.301 66.2163 197.804 107.635C199.764 111.216 203.616 113.379 207.739 113.108C208.279 113.108 262.275 109.595 284.576 109.595C306.877 109.595 355.602 113.041 356.075 113.108C359.386 113.311 362.563 112.027 364.725 109.527L422.911 42.838C428.452 73.1758 438.387 136.622 444.739 229.797C436.629 232.297 428.317 234.257 419.87 235.608C415.68 236.284 413.315 241.554 414.328 245.338C415.545 249.797 419.802 251.554 424.06 250.879C431.426 249.73 438.657 248.041 445.82 246.014C446.496 257.297 447.172 268.987 447.712 281.014C434.94 281.216 422.168 282.095 409.395 283.851C405.138 284.46 402.907 289.797 403.854 293.581C405.07 298.108 409.395 299.662 413.585 299.122C425.141 297.5 436.765 296.757 448.388 296.622C451.564 372.906 451.97 464.054 446.766 569.122L467.784 570.203C472.987 465.203 472.582 373.919 469.473 297.297C492.788 298.851 515.968 303.176 538.269 310.406C547.932 313.514 552.122 298.311 542.459 295.203L542.526 294.933Z" fill="#4F46E5"/>
<path d="M198.075 195.473C188.681 195.473 181.112 208.041 181.112 223.581C181.112 239.122 188.749 251.689 198.075 251.689C207.401 251.689 215.037 239.122 215.037 223.581C215.037 208.041 207.401 195.473 198.075 195.473Z" fill="#4F46E5"/>
<path d="M353.71 223.581C353.71 208.041 346.073 195.473 336.747 195.473C327.421 195.473 319.785 208.041 319.785 223.581C319.785 239.122 327.421 251.689 336.747 251.689C346.073 251.689 353.71 239.122 353.71 223.581Z" fill="#4F46E5"/>
<path d="M293.024 275.473H260.653C252.746 275.473 248.556 284.797 253.828 290.676L269.033 307.838C272.547 311.757 278.629 311.959 282.346 308.243L299.511 291.081C305.255 285.338 301.201 275.473 293.024 275.473Z" fill="#4F46E5"/>
<path d="M374.254 317.568C370.334 316.689 365.401 318.784 364.522 323.108C363.847 326.419 363.171 329.73 362.225 332.973C362.022 333.716 361.752 334.527 361.481 335.27C361.346 335.676 361.211 336.081 361.008 336.554C360.941 336.824 360.333 338.176 360.806 337.095C360.67 337.297 360.603 337.568 360.603 337.568C360.468 337.905 360.333 338.176 360.13 338.513C359.724 339.257 359.386 340 358.913 340.676C358.575 341.216 358.17 341.757 357.832 342.297C357.697 342.432 357.562 342.568 357.494 342.703C357.021 343.243 356.481 343.784 355.94 344.324C355.737 344.527 355.467 344.73 355.264 344.932C355.264 344.932 355.061 345.068 354.926 345.203C354.859 345.203 354.791 345.338 354.723 345.338C354.386 345.541 354.115 345.743 353.777 345.946C353.304 346.216 352.764 346.419 352.291 346.689C352.02 346.824 351.682 346.892 351.412 346.959C350.736 347.162 348.303 347.5 350.871 347.162C348.709 347.432 346.884 347.838 345.262 349.459C343.911 350.811 342.83 353.041 342.965 355.068C343.032 357.095 343.708 359.257 345.262 360.676C346.682 361.959 348.844 363.243 350.871 362.973C355.197 362.432 359.251 361.284 362.833 358.784C366.415 356.284 369.321 353.311 371.753 349.662C376.281 343.041 378.038 334.865 379.593 327.162C380.404 323.108 378.444 318.446 374.051 317.432L374.254 317.568ZM352.561 346.757C352.561 346.757 352.493 346.757 352.426 346.757C352.899 346.486 353.575 346.351 352.561 346.757Z" fill="#4F46E5"/>
</g>
<defs>
<clipPath id="clip0_31_3">
<rect width="548" height="570" fill="white"/>
</clipPath>
</defs>
</svg>
