<svg width="80" height="83" viewBox="0 0 80 83" fill="none" xmlns="http://www.w3.org/2000/svg">
<g clip-path="url(#clip0_31_261)">
<path d="M78.4262 42.9069C74.9825 41.8032 71.4453 41.1658 67.8769 40.9792C67.7834 38.865 67.6587 36.844 67.5341 34.9007C69.1235 34.2634 70.6661 33.4705 72.1153 32.5533C73.3307 31.776 72.2088 29.8172 70.9778 30.6101C69.8247 31.3407 68.6248 31.9781 67.3782 32.5222C66.0382 13.6494 63.7008 3.43567 63.654 3.26467C63.5294 2.72056 63.0931 2.28527 62.5477 2.14536C62.0023 2.00544 61.4258 2.192 61.0518 2.61174L51.2037 13.8826C49.2871 13.7582 44.2072 13.4317 41.5115 13.4317C38.8157 13.4317 33.471 13.7427 31.2738 13.8826C27.4562 6.99571 22.3919 -0.466367 18.9949 0.948318C17.9197 1.39915 16.5952 1.95881 10.7986 31.8537C9.02218 31.8226 7.24579 31.8537 5.45381 31.947C4.00465 32.0247 4.00465 34.2789 5.45381 34.2012C7.08996 34.1079 8.72612 34.0768 10.3623 34.0924C9.97271 36.1133 9.56756 38.2587 9.14684 40.5284C9.08451 40.9015 9.0066 41.2591 8.94427 41.6322C6.60691 41.7565 4.25397 41.9431 1.93219 42.2074C1.32448 42.2851 0.81026 42.6737 0.794678 43.3422C0.794678 43.9019 1.32448 44.5393 1.93219 44.4771C4.12931 44.2283 6.32643 44.0573 8.52354 43.9174C5.28241 61.3756 2.49316 77.9165 2.46199 78.0875L5.43823 78.585C7.16788 68.3712 9.38058 55.7479 11.6089 43.7775C13.8527 43.6998 16.081 43.6842 18.3249 43.7309C19.774 43.762 19.774 41.5078 18.3249 41.4767C16.2212 41.4301 14.1332 41.4456 12.0296 41.5078C12.4971 39.0204 12.9645 36.5797 13.4164 34.1856C15.4733 34.2945 17.5146 34.4965 19.5403 34.7919C20.148 34.8852 20.7557 34.6365 20.9271 33.9991C21.0674 33.4705 20.7401 32.7088 20.1324 32.6155C18.0444 32.3046 15.9408 32.1025 13.8371 31.9626C16.5641 17.9712 19.0417 6.60706 20.3038 3.88651C21.9711 4.81927 25.8667 10.2137 29.0923 16.1367C29.3728 16.6498 29.9182 16.9607 30.5103 16.914C30.5882 16.914 38.3171 16.4166 41.5115 16.4166C44.7059 16.4166 51.6712 16.914 51.7491 16.914C52.2166 16.9451 52.684 16.7586 52.9957 16.401L61.3167 6.87134C62.1114 11.2087 63.5294 20.272 64.4332 33.5638C63.2645 33.9213 62.0802 34.2012 60.8648 34.3877C60.2571 34.481 59.9299 35.2272 60.0701 35.7713C60.2415 36.4087 60.8492 36.6574 61.4569 36.5642C62.5009 36.3932 63.545 36.16 64.5734 35.8646C64.6669 37.4814 64.7604 39.1448 64.8539 40.8704C63.0308 40.9015 61.192 41.0259 59.3689 41.2746C58.7612 41.3523 58.4339 42.1296 58.5742 42.6582C58.7456 43.3111 59.3689 43.5288 59.961 43.451C61.6128 43.2178 63.2801 43.109 64.9474 43.0935C65.3993 53.9912 65.4616 67.0032 64.7136 82.0051L67.7211 82.1605C68.469 67.1587 68.4067 54.1311 67.9548 43.1868C71.2894 43.4044 74.6085 44.0262 77.8029 45.0523C79.1897 45.5031 79.7818 43.3267 78.4106 42.8758L78.4262 42.9069Z" fill="#F87171" stroke="#F87171" stroke-miterlimit="10"/>
<path d="M29.1391 28.6979C27.799 28.6979 26.7083 30.5012 26.7083 32.7087C26.7083 34.9163 27.799 36.7196 29.1391 36.7196C30.4792 36.7196 31.57 34.9163 31.57 32.7087C31.57 30.5012 30.4792 28.6979 29.1391 28.6979Z" fill="#F87171" stroke="#F87171" stroke-miterlimit="10"/>
<path d="M51.4064 32.7087C51.4064 30.4857 50.3156 28.6979 48.9755 28.6979C47.6354 28.6979 46.5447 30.5012 46.5447 32.7087C46.5447 34.9163 47.6354 36.7196 48.9755 36.7196C50.3156 36.7196 51.4064 34.9163 51.4064 32.7087Z" fill="#F87171" stroke="#F87171" stroke-miterlimit="10"/>
<path d="M42.7269 40.1242H38.099C36.977 40.1242 36.3693 41.4612 37.1173 42.3006L39.2832 44.7569C39.7819 45.3166 40.6545 45.3477 41.1843 44.8191L43.6463 42.3628C44.4722 41.5389 43.88 40.1242 42.7269 40.1242Z" fill="#F87171" stroke="#F87171" stroke-miterlimit="10"/>
<path d="M54.3513 46.1405C53.7904 46.0161 53.0892 46.3115 52.9645 46.9333C52.871 47.3997 52.7775 47.8816 52.6373 48.348C52.6061 48.4568 52.5749 48.5656 52.5282 48.6745C52.5126 48.7366 52.4815 48.7988 52.4659 48.8455C52.4659 48.8766 52.3724 49.0787 52.4347 48.9232C52.4347 48.9543 52.4035 48.9854 52.4035 48.9854C52.388 49.032 52.3568 49.0787 52.3412 49.1253C52.2945 49.2341 52.2321 49.3429 52.1698 49.4362C52.1231 49.5139 52.0607 49.5917 52.014 49.6694C51.9984 49.685 51.9828 49.716 51.9672 49.7316C51.8893 49.8093 51.827 49.887 51.7491 49.9648C51.7179 49.9959 51.6868 50.027 51.6556 50.0581C51.6556 50.0581 51.6244 50.0736 51.6088 50.0891C51.6088 50.0891 51.5933 50.1047 51.5777 50.1047C51.5309 50.1358 51.4842 50.1669 51.4374 50.1824C51.3751 50.2291 51.2972 50.2601 51.2349 50.2912C51.1881 50.2912 51.157 50.3223 51.1102 50.3379C51.0167 50.369 50.6583 50.4156 51.0323 50.369C50.7206 50.4001 50.4713 50.4623 50.2376 50.6954C50.035 50.8975 49.8948 51.2085 49.9104 51.4883C49.9104 51.7837 50.0194 52.079 50.2376 52.2811C50.4402 52.4677 50.7518 52.6542 51.0323 52.6076C51.64 52.5299 52.2321 52.3744 52.7464 52.0168C53.2606 51.6593 53.6657 51.2395 54.0241 50.711C54.6786 49.7627 54.9279 48.5967 55.146 47.493C55.2551 46.9178 54.9746 46.2493 54.3513 46.1094V46.1405ZM51.2504 50.2912C51.2504 50.2912 51.2504 50.2912 51.2349 50.2912C51.3128 50.2601 51.4063 50.2291 51.2504 50.2912Z" fill="#F87171"/>
<path d="M51.2349 50.2912C51.2972 50.2602 51.3751 50.2291 51.4374 50.1824C51.4842 50.1669 51.5309 50.1358 51.5777 50.1047C51.5933 50.1047 51.6088 50.0891 51.6088 50.0891C51.6244 50.0736 51.6556 50.0581 51.6556 50.0581C51.6868 50.027 51.7179 49.9959 51.7491 49.9648C51.827 49.887 51.8893 49.8093 51.9672 49.7316C51.9828 49.716 51.9984 49.685 52.014 49.6694C52.0607 49.5917 52.1231 49.5139 52.1698 49.4362C52.2321 49.3429 52.2945 49.2341 52.3412 49.1253C52.3568 49.0787 52.388 49.032 52.4035 48.9854C52.4035 48.9854 52.4347 48.9543 52.4347 48.9232C52.3724 49.0787 52.4659 48.8766 52.4659 48.8455C52.4815 48.7988 52.5126 48.7366 52.5282 48.6745C52.5749 48.5656 52.6061 48.4568 52.6373 48.348C52.7775 47.8816 52.871 47.3997 52.9645 46.9333C53.0892 46.3115 53.7904 46.0161 54.3513 46.1405V46.1094C54.9746 46.2493 55.2551 46.9178 55.146 47.493C54.9279 48.5967 54.6786 49.7627 54.0241 50.711C53.6657 51.2395 53.2606 51.6593 52.7464 52.0168C52.2321 52.3744 51.64 52.5299 51.0323 52.6076C50.7518 52.6542 50.4402 52.4677 50.2376 52.2811C50.0194 52.079 49.9104 51.7837 49.9104 51.4883C49.8948 51.2085 50.035 50.8975 50.2376 50.6954C50.4713 50.4623 50.7206 50.4001 51.0323 50.369C50.6583 50.4156 51.0167 50.369 51.1102 50.3379C51.157 50.3223 51.1881 50.2912 51.2349 50.2912ZM51.2349 50.2912C51.2504 50.2912 51.2504 50.2912 51.2504 50.2912C51.4063 50.2291 51.3128 50.2602 51.2349 50.2912Z" stroke="#F87171" stroke-miterlimit="10"/>
</g>
<defs>
<clipPath id="clip0_31_261">
<rect width="80" height="83" fill="white"/>
</clipPath>
</defs>
</svg>
