<svg width="188" height="67" viewBox="0 0 188 67" fill="none" xmlns="http://www.w3.org/2000/svg">
<g clip-path="url(#clip0_30_164)">
<path d="M108.02 17.8198C109.689 18.7968 110.995 20.1337 111.93 21.8363C112.866 23.5388 113.334 25.4528 113.334 27.5667V28.2123C113.334 30.3319 112.866 32.2459 111.93 33.9656C110.995 35.6853 109.689 37.0337 108.02 38.0106C106.345 38.9876 104.439 39.4732 102.302 39.4732H95.3081C94.5978 39.4732 94.026 40.0389 94.026 40.7416V49.2201C94.026 49.9229 93.4542 50.4885 92.7438 50.4885H84.2249C83.5145 50.4885 82.9427 49.9229 82.9427 49.2201V17.6198C82.9427 16.9171 83.5145 16.3515 84.2249 16.3515H102.302C104.439 16.3515 106.345 16.8371 108.02 17.8141V17.8198ZM94.026 30.2177C94.026 30.9204 94.5978 31.486 95.3081 31.486H98.5887C99.7611 31.486 100.639 31.1889 101.222 30.5948C101.806 30.0006 102.1 29.1893 102.1 28.1609V27.7667C102.1 26.7097 101.806 25.887 101.222 25.3099C100.639 24.7329 99.7611 24.4415 98.5887 24.4415H95.3081C94.5978 24.4415 94.026 25.0071 94.026 25.7099V30.2177Z" fill="#0F172A"/>
<path d="M136.748 24.2073C139.878 25.5728 142.165 28.458 143.598 32.863L143.725 33.2629C143.944 33.9314 143.569 34.6455 142.899 34.8569L126.519 40.0789C125.774 40.3188 125.422 41.1587 125.763 41.8557C126.288 42.9241 126.952 43.6954 127.755 44.1696C128.864 44.8266 130.296 44.8723 132.046 44.3124C133.64 43.804 134.697 43.1012 135.235 42.2042C135.604 41.5815 135.754 40.913 135.702 40.1989C135.656 39.599 136.003 39.0448 136.58 38.8562L143.413 36.6795C144.146 36.4452 144.926 36.9023 145.07 37.6564C145.538 40.1303 145.03 42.3985 143.534 44.461C141.767 46.9006 138.654 48.8317 134.195 50.2543C129.517 51.7455 125.537 51.8254 122.257 50.4885C118.976 49.1516 116.626 46.3007 115.199 41.9243C113.773 37.5479 114.004 33.9999 115.8 30.9947C117.596 27.9895 120.703 25.7842 125.127 24.373C129.742 22.9047 133.617 22.8475 136.748 24.213V24.2073ZM125.381 35.5425L131.688 33.5314C132.514 33.2686 132.843 32.2859 132.341 31.5832C131.966 31.0633 131.504 30.6576 130.955 30.372C129.961 29.852 128.795 29.8063 127.461 30.2348C125.145 30.9719 123.897 32.2973 123.707 34.2056C123.62 35.114 124.504 35.811 125.381 35.5368V35.5425Z" fill="#0F172A"/>
<path d="M164.99 26.704L164.511 30.8404C164.43 31.5375 163.795 32.0345 163.09 31.9545L160.058 31.6117C159.353 31.5318 158.718 32.0288 158.637 32.7258L157.632 41.3758C157.493 42.5584 157.592 43.444 157.927 44.0325C158.262 44.621 158.96 44.9752 160.023 45.0952L161.542 45.2666C162.247 45.3465 162.749 45.975 162.668 46.672L162.258 50.2257C162.189 50.8085 161.733 51.2712 161.144 51.3398C160.514 51.4141 159.798 51.4541 158.984 51.4712C157.701 51.4941 156.598 51.4484 155.668 51.3455C152.746 51.0141 150.557 50.2314 149.102 49.0031C147.646 47.7747 147.063 45.8893 147.357 43.364L148.72 31.6117C148.801 30.9147 148.299 30.2863 147.594 30.2063L146.456 30.0749C145.752 29.9949 145.249 29.3664 145.33 28.6694L145.81 24.5329C145.89 23.8359 146.526 23.3389 147.23 23.4189L149.067 23.6302C149.645 23.6931 150.193 23.3731 150.407 22.8361L152.74 17.0028C152.954 16.4715 153.503 16.1458 154.08 16.2087L159.203 16.7914C159.908 16.8714 160.41 17.4999 160.329 18.1969L159.706 23.5617C159.625 24.2587 160.127 24.8872 160.832 24.9672L163.864 25.31C164.569 25.3899 165.071 26.0184 164.99 26.7154V26.704Z" fill="#0F172A"/>
<path d="M187.163 34.3256L181.427 34.5827C181.121 34.5941 180.827 34.4512 180.659 34.1999L177.257 29.1436H177.119L174.156 34.497C174.012 34.7598 173.734 34.9312 173.428 34.9483L168.074 35.1883C167.358 35.2225 166.913 34.4398 167.306 33.8456L172.527 26.007C172.735 25.6927 172.718 25.2814 172.475 24.9843L167.329 18.6939C166.879 18.1397 167.254 17.317 167.97 17.2827L173.752 17.0256C174.058 17.0142 174.352 17.1571 174.52 17.4142L177.333 21.6134H177.471L179.897 17.1742C180.041 16.9057 180.318 16.7343 180.63 16.7228L185.932 16.4886C186.648 16.4543 187.099 17.2428 186.7 17.8369L182.04 24.7329C181.826 25.0471 181.843 25.4585 182.08 25.7499L187.821 32.9372C188.266 33.4914 187.884 34.3084 187.174 34.337L187.163 34.3256Z" fill="#0F172A"/>
<path d="M66.8 17.3513C66.234 16.82 65.4659 16.5686 64.6977 16.6657L51.0443 18.3569L46.834 1.93683C46.5741 0.925575 45.7308 0.177131 44.6912 0.0342981C43.6458 -0.114248 42.6294 0.377097 42.098 1.27409L36.9751 9.93547L23.8357 11.7523L16.6451 1.31979C16.1196 0.559923 15.2532 0.137138 14.3291 0.205697C13.4051 0.268544 12.608 0.794168 12.198 1.61689C9.78379 6.42178 4.99008 20.248 0 58.8871L2.63365 59.2185C7.70459 19.9052 12.5965 6.77601 14.5197 2.89095L21.6641 13.2606C22.2243 14.0719 23.1773 14.489 24.1591 14.3519L37.3678 12.5236C38.1591 12.415 38.8406 11.9637 39.2391 11.2838L44.2985 2.73098L48.48 19.0539C48.7976 20.3051 50.0163 21.1221 51.31 20.9622L56.4214 20.328C56.1788 22.4876 56.3174 25.7556 59.0204 27.1268C60.3372 27.7953 61.6771 28.0124 62.8611 28.0124C63.3751 28.0124 63.8603 27.9724 64.2992 27.9095L63.0864 44.1868L47.4404 48.5689C46.2679 48.9003 45.494 49.9686 45.5633 51.1741L46.4643 66.9943L49.1153 66.8458L48.2201 51.077L63.8545 46.6949C64.8941 46.4035 65.6507 45.4894 65.7316 44.421L67.5971 19.3853C67.6548 18.6197 67.366 17.8713 66.8 17.3399V17.3513ZM60.4412 24.4073C59.2803 23.8188 59.338 21.5049 59.6153 19.9395L64.9461 19.2824L64.536 24.7615C63.5946 24.9843 61.9486 25.1786 60.4412 24.413V24.4073Z" fill="#4F46E5"/>
<path d="M28.2829 28.3152C29.1696 28.3152 29.8885 27.2153 29.8885 25.8585C29.8885 24.5016 29.1696 23.4017 28.2829 23.4017C27.3961 23.4017 26.6773 24.5016 26.6773 25.8585C26.6773 27.2153 27.3961 28.3152 28.2829 28.3152Z" fill="#4F46E5"/>
<path d="M39.8802 26.8812C40.767 26.8812 41.4858 25.7812 41.4858 24.4244C41.4858 23.0676 40.767 21.9677 39.8802 21.9677C38.9935 21.9677 38.2746 23.0676 38.2746 24.4244C38.2746 25.7812 38.9935 26.8812 39.8802 26.8812Z" fill="#4F46E5"/>
<path d="M49.6929 39.1191C49.2366 38.6677 48.5897 38.742 48.1277 39.1191C45.9792 40.873 43.4841 41.81 40.6945 41.77C40.1978 41.7643 39.7069 41.7472 39.216 41.7015C38.8406 41.6672 38.4941 41.6101 37.9974 41.4901C36.721 41.193 35.4965 40.7074 34.2837 40.2274C33.7292 40.0046 33.0708 40.4674 32.9264 40.993C32.7532 41.6158 33.1401 42.1185 33.7003 42.3356C34.9883 42.8498 36.2936 43.364 37.6566 43.6497C38.7482 43.884 39.8629 43.9468 40.9775 43.9582C44.2581 43.9754 47.192 42.7127 49.6986 40.6674C50.1607 40.2903 50.0914 39.5133 49.6986 39.1191H49.6929Z" fill="#4F46E5"/>
</g>
<defs>
<clipPath id="clip0_30_164">
<rect width="188" height="67" fill="white"/>
</clipPath>
</defs>
</svg>
