<svg width="102" height="37" viewBox="0 0 102 37" fill="none" xmlns="http://www.w3.org/2000/svg">
<g clip-path="url(#clip0_31_148)">
<path d="M58.6067 9.84077C59.5123 10.3803 60.2205 11.1186 60.7281 12.0588C61.2357 12.999 61.4896 14.056 61.4896 15.2234V15.5799C61.4896 16.7505 61.2357 17.8074 60.7281 18.7571C60.2205 19.7068 59.5123 20.4514 58.6067 20.9909C57.698 21.5305 56.6639 21.7986 55.5045 21.7986H51.7098C51.3243 21.7986 51.0141 22.111 51.0141 22.4991V27.1813C51.0141 27.5693 50.7039 27.8817 50.3185 27.8817H45.6965C45.3111 27.8817 45.0009 27.5693 45.0009 27.1813V9.73034C45.0009 9.34226 45.3111 9.02991 45.6965 9.02991H55.5045C56.6639 9.02991 57.698 9.29809 58.6067 9.83762V9.84077ZM51.0141 16.6874C51.0141 17.0754 51.3243 17.3878 51.7098 17.3878H53.4896C54.1257 17.3878 54.602 17.2237 54.9185 16.8956C55.235 16.5675 55.3948 16.1194 55.3948 15.5515V15.3338C55.3948 14.7501 55.235 14.2958 54.9185 13.9771C54.602 13.6585 54.1257 13.4975 53.4896 13.4975H51.7098C51.3243 13.4975 51.0141 13.8099 51.0141 14.198V16.6874Z" fill="white"/>
<path d="M74.193 13.3682C75.8913 14.1223 77.1322 15.7156 77.9093 18.1482L77.9783 18.3691C78.0973 18.7382 77.8937 19.1326 77.5302 19.2493L68.6434 22.1331C68.2392 22.2656 68.0481 22.7294 68.233 23.1143C68.5181 23.7044 68.8785 24.1303 69.314 24.3922C69.9157 24.755 70.6928 24.7802 71.6422 24.471C72.5071 24.1902 73.0805 23.8022 73.372 23.3068C73.5725 22.9629 73.654 22.5938 73.6258 22.1994C73.6007 21.8681 73.7887 21.562 74.1021 21.4579L77.8091 20.2558C78.207 20.1265 78.63 20.3789 78.7084 20.7953C78.9622 22.1615 78.6865 23.4141 77.8749 24.5531C76.916 25.9003 75.227 26.9667 72.8079 27.7524C70.2698 28.5758 68.1107 28.62 66.3309 27.8817C64.551 27.1434 63.2757 25.569 62.5017 23.1522C61.7277 20.7354 61.8531 18.7761 62.8276 17.1165C63.8021 15.4569 65.488 14.239 67.8883 13.4597C70.392 12.6488 72.4946 12.6173 74.193 13.3714V13.3682ZM68.0261 19.6279L71.448 18.5173C71.8961 18.3722 72.0747 17.8295 71.8021 17.4415C71.5984 17.1543 71.3477 16.9303 71.05 16.7726C70.511 16.4855 69.8781 16.4602 69.1542 16.6968C67.8977 17.1039 67.2208 17.8358 67.1174 18.8897C67.0704 19.3913 67.5498 19.7762 68.0261 19.6248V19.6279Z" fill="white"/>
<path d="M89.5159 14.747L89.2559 17.0313C89.212 17.4162 88.8673 17.6907 88.485 17.6465L86.8399 17.4572C86.4576 17.4131 86.1129 17.6875 86.069 18.0725L85.5238 22.8493C85.4486 23.5024 85.5019 23.9915 85.6836 24.3164C85.8654 24.6414 86.2445 24.837 86.8211 24.9033L87.6452 24.9979C88.0275 25.0421 88.3001 25.3892 88.2563 25.7741L88.0338 27.7366C87.9962 28.0584 87.7486 28.314 87.429 28.3518C87.0874 28.3928 86.6989 28.4149 86.2571 28.4244C85.5614 28.437 84.9629 28.4118 84.4584 28.355C82.8728 28.172 81.6852 27.7397 80.8956 27.0614C80.1059 26.383 79.7894 25.3419 79.9492 23.9473L80.6887 17.4572C80.7326 17.0723 80.46 16.7252 80.0777 16.6811L79.4604 16.6085C79.0781 16.5643 78.8055 16.2173 78.8494 15.8323L79.1094 13.548C79.1533 13.1631 79.498 12.8886 79.8803 12.9328L80.8768 13.0495C81.1901 13.0842 81.4878 12.9076 81.6037 12.611L82.8697 9.3896C82.9856 9.09618 83.2833 8.91634 83.5967 8.95104L86.3761 9.27286C86.7584 9.31704 87.031 9.6641 86.9872 10.049L86.6487 13.0117C86.6049 13.3966 86.8775 13.7437 87.2598 13.7878L88.9049 13.9771C89.2872 14.0213 89.5598 14.3684 89.5159 14.7533V14.747Z" fill="white"/>
<path d="M101.546 18.9559L98.434 19.0979C98.268 19.1042 98.1081 19.0253 98.0173 18.8865L96.1716 16.0942H96.0964L94.4889 19.0506C94.4106 19.1957 94.2602 19.2903 94.0941 19.2998L91.1893 19.4323C90.8007 19.4513 90.5594 19.019 90.7725 18.6909L93.6052 14.3621C93.7181 14.1885 93.7087 13.9614 93.577 13.7973L90.7851 10.3235C90.5406 10.0175 90.7443 9.56313 91.1329 9.5442L94.2696 9.40222C94.4356 9.39591 94.5954 9.47479 94.6863 9.61677L96.2124 11.9358H96.2876L97.6036 9.48425C97.682 9.33596 97.8324 9.24131 98.0016 9.235L100.878 9.10564C101.267 9.08671 101.511 9.52211 101.295 9.85024L98.7662 13.6585C98.6502 13.832 98.6597 14.0592 98.7881 14.2201L101.903 18.1892C102.144 18.4953 101.937 18.9464 101.552 18.9622L101.546 18.9559Z" fill="white"/>
<path d="M36.2426 9.58209C35.9355 9.28867 35.5187 9.14984 35.102 9.20348L27.6943 10.1374L25.4099 1.0696C25.2689 0.511145 24.8114 0.0978249 24.2474 0.0189471C23.6802 -0.0630858 23.1287 0.208254 22.8404 0.703606L20.0609 5.48676L12.9321 6.49008L9.03087 0.728847C8.74572 0.309217 8.27569 0.0757391 7.77432 0.1136C7.27296 0.148307 6.84053 0.438577 6.61805 0.892913C5.30822 3.54636 2.70738 11.1817 0 32.5198L1.4289 32.7028C4.18015 10.9924 6.83426 3.74198 7.87773 1.5965L11.7539 7.32303C12.0579 7.77106 12.5749 8.00138 13.1076 7.92566L20.274 6.91602C20.7033 6.85608 21.0731 6.60682 21.2893 6.23136L24.0343 1.50816L26.303 10.5223C26.4753 11.2133 27.1365 11.6645 27.8384 11.5761L30.6116 11.2259C30.48 12.4185 30.5552 14.2233 32.0217 14.9805C32.7361 15.3496 33.4631 15.4695 34.1055 15.4695C34.3844 15.4695 34.6476 15.4474 34.8857 15.4127L34.2277 24.4017L25.7389 26.8216C25.1028 27.0046 24.6829 27.5946 24.7205 28.2604L25.2094 36.9969L26.6477 36.9148L26.162 28.2067L34.6445 25.7868C35.2085 25.6258 35.619 25.121 35.6629 24.531L36.675 10.7053C36.7063 10.2825 36.5497 9.86921 36.2426 9.57578V9.58209ZM32.7925 13.4787C32.1627 13.1537 32.194 11.8759 32.3444 11.0114L35.2367 10.6485L35.0142 13.6743C34.5035 13.7973 33.6104 13.9046 32.7925 13.4818V13.4787Z" fill="white"/>
<path d="M15.345 15.6367C15.8261 15.6367 16.2161 15.0293 16.2161 14.28C16.2161 13.5308 15.8261 12.9233 15.345 12.9233C14.8639 12.9233 14.4739 13.5308 14.4739 14.28C14.4739 15.0293 14.8639 15.6367 15.345 15.6367Z" fill="white"/>
<path d="M21.6371 14.8448C22.1182 14.8448 22.5082 14.2374 22.5082 13.4881C22.5082 12.7388 22.1182 12.1314 21.6371 12.1314C21.156 12.1314 20.766 12.7388 20.766 13.4881C20.766 14.2374 21.156 14.8448 21.6371 14.8448Z" fill="white"/>
<path d="M26.961 21.6031C26.7135 21.3538 26.3625 21.3948 26.1118 21.6031C24.9461 22.5717 23.5924 23.0891 22.0789 23.067C21.8095 23.0639 21.5431 23.0544 21.2768 23.0292C21.0731 23.0102 20.8851 22.9787 20.6156 22.9124C19.9231 22.7484 19.2588 22.4802 18.6007 22.2151C18.2999 22.0921 17.9427 22.3477 17.8643 22.6379C17.7703 22.9818 17.9803 23.2595 18.2842 23.3794C18.983 23.6633 19.6912 23.9473 20.4307 24.1051C21.0229 24.2344 21.6277 24.2691 22.2325 24.2754C24.0123 24.2849 25.6042 23.5876 26.9641 22.4581C27.2148 22.2499 27.1772 21.8208 26.9641 21.6031H26.961Z" fill="white"/>
</g>
<defs>
<clipPath id="clip0_31_148">
<rect width="102" height="37" fill="white"/>
</clipPath>
</defs>
</svg>
