<svg width="20" height="21" viewBox="0 0 20 21" fill="none"  xmlns="http://www.w3.org/2000/svg">
<path d="M12.6667 3C13.1063 3.00626 13.5256 3.18598 13.8333 3.5L17 6.66667C17.314 6.97438 17.4937 7.39372 17.5 7.83333V16.3333C17.5 16.7754 17.3244 17.1993 17.0118 17.5118C16.6993 17.8244 16.2754 18 15.8333 18H4.16667C3.72464 18 3.30072 17.8244 2.98816 17.5118C2.67559 17.1993 2.5 16.7754 2.5 16.3333V4.66667C2.5 4.22464 2.67559 3.80072 2.98816 3.48816C3.30072 3.17559 3.72464 3 4.16667 3H12.6667Z" stroke="#FFFFFF" stroke-linecap="round" stroke-linejoin="round"/>
<path d="M14.1666 18V12.1667C14.1666 11.9457 14.0788 11.7337 13.9226 11.5775C13.7663 11.4212 13.5543 11.3334 13.3333 11.3334H6.66665C6.44563 11.3334 6.23367 11.4212 6.07739 11.5775C5.92111 11.7337 5.83331 11.9457 5.83331 12.1667V18" stroke="#FFFFFF" stroke-linecap="round" stroke-linejoin="round"/>
<path d="M5.83331 3V6.33333C5.83331 6.55435 5.92111 6.76631 6.07739 6.92259C6.23367 7.07887 6.44563 7.16667 6.66665 7.16667H12.5" stroke="#FFFFFF" stroke-linecap="round" stroke-linejoin="round"/>
</svg>
